<svg width="35" height="35" viewBox="0 0 35 35" fill="none" xmlns="http://www.w3.org/2000/svg">
<path d="M19.85 24C21.4145 22.54 23 20.79 23 18.5C23 17.0413 22.3916 15.6424 21.3085 14.6109C20.2255 13.5795 18.7566 13 17.225 13C15.377 13 14.075 13.5 12.5 15C10.925 13.5 9.623 13 7.775 13C6.24337 13 4.77448 13.5795 3.69146 14.6109C2.60844 15.6424 2 17.0413 2 18.5C2 20.8 3.575 22.55 5.15 24L12.5 31L19.85 24Z" stroke="#1C2731" stroke-width="2.67" stroke-linecap="round" stroke-linejoin="round"/>
<rect x="15" width="20" height="20" rx="10" fill="#1C5F52"/>
<path d="M28.2956 10.704C28.2956 11.456 28.2136 12.108 28.0496 12.66C27.8896 13.208 27.6696 13.662 27.3896 14.022C27.1096 14.382 26.7776 14.65 26.3936 14.826C26.0136 15.002 25.6056 15.09 25.1696 15.09C24.7296 15.09 24.3196 15.002 23.9396 14.826C23.5636 14.65 23.2356 14.382 22.9556 14.022C22.6756 13.662 22.4556 13.208 22.2956 12.66C22.1356 12.108 22.0556 11.456 22.0556 10.704C22.0556 9.952 22.1356 9.3 22.2956 8.748C22.4556 8.196 22.6756 7.74 22.9556 7.38C23.2356 7.016 23.5636 6.746 23.9396 6.57C24.3196 6.394 24.7296 6.306 25.1696 6.306C25.6056 6.306 26.0136 6.394 26.3936 6.57C26.7776 6.746 27.1096 7.016 27.3896 7.38C27.6696 7.74 27.8896 8.196 28.0496 8.748C28.2136 9.3 28.2956 9.952 28.2956 10.704ZM27.1856 10.704C27.1856 10.048 27.1296 9.498 27.0176 9.054C26.9096 8.606 26.7616 8.246 26.5736 7.974C26.3896 7.702 26.1756 7.508 25.9316 7.392C25.6876 7.272 25.4336 7.212 25.1696 7.212C24.9056 7.212 24.6516 7.272 24.4076 7.392C24.1636 7.508 23.9496 7.702 23.7656 7.974C23.5816 8.246 23.4336 8.606 23.3216 9.054C23.2136 9.498 23.1596 10.048 23.1596 10.704C23.1596 11.36 23.2136 11.91 23.3216 12.354C23.4336 12.798 23.5816 13.156 23.7656 13.428C23.9496 13.7 24.1636 13.896 24.4076 14.016C24.6516 14.132 24.9056 14.19 25.1696 14.19C25.4336 14.19 25.6876 14.132 25.9316 14.016C26.1756 13.896 26.3896 13.7 26.5736 13.428C26.7616 13.156 26.9096 12.798 27.0176 12.354C27.1296 11.91 27.1856 11.36 27.1856 10.704Z" fill="#1C2731"/>
</svg>
