<svg width="33" height="31" viewBox="0 0 33 31" fill="none" xmlns="http://www.w3.org/2000/svg">
<path d="M5 9.66699L2.5 13.0003V24.667C2.5 25.109 2.67559 25.5329 2.98816 25.8455C3.30072 26.1581 3.72464 26.3337 4.16667 26.3337H15.8333C16.2754 26.3337 16.6993 26.1581 17.0118 25.8455C17.3244 25.5329 17.5 25.109 17.5 24.667V13.0003L15 9.66699H5Z" stroke="#1C2731" stroke-width="2.67" stroke-linecap="round" stroke-linejoin="round"/>
<path d="M2.5 13H17.5" stroke="#1C2731" stroke-width="1.66667" stroke-linecap="round" stroke-linejoin="round"/>
<path d="M13.3332 16.333C13.3332 17.2171 12.982 18.0649 12.3569 18.69C11.7317 19.3152 10.8839 19.6663 9.99984 19.6663C9.11578 19.6663 8.26794 19.3152 7.64281 18.69C7.01769 18.0649 6.6665 17.2171 6.6665 16.333" stroke="#1C2731" stroke-width="2.67" stroke-linecap="round" stroke-linejoin="round"/>
<rect x="13" width="20" height="20" rx="10" fill="#1C5F52"/>
<path d="M26.2956 10.704C26.2956 11.456 26.2136 12.108 26.0496 12.66C25.8896 13.208 25.6696 13.662 25.3896 14.022C25.1096 14.382 24.7776 14.65 24.3936 14.826C24.0136 15.002 23.6056 15.09 23.1696 15.09C22.7296 15.09 22.3196 15.002 21.9396 14.826C21.5636 14.65 21.2356 14.382 20.9556 14.022C20.6756 13.662 20.4556 13.208 20.2956 12.66C20.1356 12.108 20.0556 11.456 20.0556 10.704C20.0556 9.952 20.1356 9.3 20.2956 8.748C20.4556 8.196 20.6756 7.74 20.9556 7.38C21.2356 7.016 21.5636 6.746 21.9396 6.57C22.3196 6.394 22.7296 6.306 23.1696 6.306C23.6056 6.306 24.0136 6.394 24.3936 6.57C24.7776 6.746 25.1096 7.016 25.3896 7.38C25.6696 7.74 25.8896 8.196 26.0496 8.748C26.2136 9.3 26.2956 9.952 26.2956 10.704ZM25.1856 10.704C25.1856 10.048 25.1296 9.498 25.0176 9.054C24.9096 8.606 24.7616 8.246 24.5736 7.974C24.3896 7.702 24.1756 7.508 23.9316 7.392C23.6876 7.272 23.4336 7.212 23.1696 7.212C22.9056 7.212 22.6516 7.272 22.4076 7.392C22.1636 7.508 21.9496 7.702 21.7656 7.974C21.5816 8.246 21.4336 8.606 21.3216 9.054C21.2136 9.498 21.1596 10.048 21.1596 10.704C21.1596 11.36 21.2136 11.91 21.3216 12.354C21.4336 12.798 21.5816 13.156 21.7656 13.428C21.9496 13.7 22.1636 13.896 22.4076 14.016C22.6516 14.132 22.9056 14.19 23.1696 14.19C23.4336 14.19 23.6876 14.132 23.9316 14.016C24.1756 13.896 24.3896 13.7 24.5736 13.428C24.7616 13.156 24.9096 12.798 25.0176 12.354C25.1296 11.91 25.1856 11.36 25.1856 10.704Z" fill="#1C2731"/>
</svg>
