<svg width="32" height="32" viewBox="0 0 32 32" fill="none" xmlns="http://www.w3.org/2000/svg">
<path d="M9.2925 16.7075L19.2925 26.7075C19.4324 26.8475 19.6106 26.9429 19.8047 26.9815C19.9988 27.0202 20.2 27.0004 20.3828 26.9246C20.5656 26.8489 20.7218 26.7206 20.8317 26.556C20.9416 26.3914 21.0002 26.1979 21 26V5.99999C21.0002 5.8021 20.9416 5.60861 20.8317 5.44401C20.7218 5.27942 20.5656 5.15112 20.3828 5.07537C20.2 4.99962 19.9988 4.97981 19.8047 5.01846C19.6106 5.05712 19.4324 5.15248 19.2925 5.29249L9.2925 15.2925C9.19952 15.3854 9.12576 15.4957 9.07544 15.6171C9.02512 15.7385 8.99921 15.8686 8.99921 16C8.99921 16.1314 9.02512 16.2615 9.07544 16.3829C9.12576 16.5043 9.19952 16.6146 9.2925 16.7075Z" fill="#1C2731"/>
</svg>
