<svg width="55" height="54" viewBox="0 0 55 54" fill="none" xmlns="http://www.w3.org/2000/svg">
<g clip-path="url(#clip0_510_445)">
<path fill-rule="evenodd" clip-rule="evenodd" d="M25.5714 18.7857C25.5714 21.9811 22.9811 24.5714 19.7857 24.5714C16.5904 24.5714 14 21.9811 14 18.7857C14 15.5904 16.5904 13 19.7857 13C22.9811 13 25.5714 15.5904 25.5714 18.7857ZM41 18.7857C41 21.9811 38.4097 24.5714 35.2143 24.5714C32.0189 24.5714 29.4286 21.9811 29.4286 18.7857C29.4286 15.5904 32.0189 13 35.2143 13C38.4097 13 41 15.5904 41 18.7857ZM19.7857 40C22.9811 40 25.5714 37.4097 25.5714 34.2143C25.5714 31.0189 22.9811 28.4286 19.7857 28.4286C16.5904 28.4286 14 31.0189 14 34.2143C14 37.4097 16.5904 40 19.7857 40ZM41 34.2143C41 37.4097 38.4097 40 35.2143 40C32.0189 40 29.4286 37.4097 29.4286 34.2143C29.4286 31.0189 32.0189 28.4286 35.2143 28.4286C38.4097 28.4286 41 31.0189 41 34.2143Z" fill="#1C2731"/>
</g>
<rect x="0.5" y="0.5" width="54" height="53" stroke="#1C2731"/>
<defs>
<clipPath id="clip0_510_445">
<rect width="27" height="27" fill="white" transform="translate(14 13)"/>
</clipPath>
</defs>
</svg>
