<svg width="23" height="23" viewBox="0 0 23 23" fill="none" xmlns="http://www.w3.org/2000/svg">
<path d="M11.0486 0C13.9789 0 16.7891 1.16404 18.8611 3.23604C20.9331 5.30805 22.0972 8.11829 22.0972 11.0485C22.0972 13.9788 20.9331 16.789 18.8611 18.861C16.7891 20.933 13.9789 22.0971 11.0486 22.0971C8.11837 22.0971 5.30813 20.933 3.23612 18.861C1.16412 16.789 8.01086e-05 13.9788 8.01086e-05 11.0485C8.01086e-05 8.11829 1.16412 5.30805 3.23612 3.23604C5.30813 1.16404 8.11837 0 11.0486 0ZM11.2652 5.84689C11.1623 5.94952 11.0807 6.07144 11.025 6.20567C10.9693 6.3399 10.9406 6.4838 10.9406 6.62913C10.9406 6.77445 10.9693 6.91835 11.025 7.05258C11.0807 7.18681 11.1623 7.30873 11.2652 7.41136C12.1997 8.34585 11.5378 9.94369 10.2163 9.94369H5.52435C5.23133 9.94369 4.9503 10.0601 4.7431 10.2673C4.5359 10.4745 4.4195 10.7555 4.4195 11.0485C4.4195 11.3416 4.5359 11.6226 4.7431 11.8298C4.9503 12.037 5.23133 12.1534 5.52435 12.1534H10.2163C11.5378 12.1534 12.1997 13.7512 11.2652 14.6857C11.0577 14.8929 10.941 15.174 10.9408 15.4672C10.9406 15.7604 11.0569 16.0416 11.2641 16.2491C11.4712 16.4566 11.7523 16.5732 12.0455 16.5734C12.3387 16.5736 12.62 16.4574 12.8274 16.2502L17.2469 11.8308C17.3497 11.7281 17.4314 11.6062 17.4871 11.472C17.5428 11.3378 17.5714 11.1939 17.5714 11.0485C17.5714 10.9032 17.5428 10.7593 17.4871 10.6251C17.4314 10.4909 17.3497 10.3689 17.2469 10.2663L12.8274 5.84689C12.6202 5.63976 12.3393 5.5234 12.0463 5.5234C11.7533 5.5234 11.4724 5.63976 11.2652 5.84689Z" fill="#1C2731"/>
</svg>
